<svg width="414" height="294" xmlns="http://www.w3.org/2000/svg">
  <defs>
    <linearGradient x1="49.921%" y1="99.992%" x2="49.921%" y2="-.007%" id="a">
      <stop stop-color="gray" stop-opacity=".25" offset="0%"/>
      <stop stop-color="gray" stop-opacity=".12" offset="54%"/>
      <stop stop-color="gray" stop-opacity=".1" offset="100%"/>
    </linearGradient>
  </defs>
  <g fill="none" fill-rule="evenodd" opacity=".9">
    <path d="M240.538 45.672c-26.541-.923-51.819-9.487-75.956-18.859-24.138-9.372-48.046-19.756-73.951-24.721-16.662-3.194-35.719-3.645-49.14 5.28-12.923 8.61-17.097 23.43-19.34 37.197-1.69 10.356-2.683 21.253 1.943 30.948 3.215 6.732 8.916 12.39 12.86 18.839 13.726 22.433 4.024 50.098-10.846 72.002-6.972 10.278-15.07 20.089-20.455 31.019-5.385 10.93-7.874 23.47-3.162 34.63 4.667 11.069 15.792 19.367 27.845 25.209 24.478 11.864 53.311 15.263 81.447 17.186 62.263 4.26 124.855 2.414 187.282.57 23.105-.685 46.307-1.378 69.034-4.949 12.623-1.984 25.651-5.133 34.817-12.709 11.63-9.646 14.512-25.984 6.717-38.078-13.074-20.29-49.21-25.328-58.36-47.105-5.027-11.984.136-25.336 7.448-36.45 15.681-23.844 41.964-44.765 43.346-72.02.951-18.723-11.684-37.471-31.22-46.326-20.476-9.286-48.874-8.118-63.974 7.252-15.562 15.808-42.899 21.896-66.335 21.085z" fill="#674B7C" opacity=".1"/>
    <g opacity=".2" transform="translate(21 137)">
      <path d="M81.164 119.373c.243.47.449.96.615 1.463a333.941 333.941 0 0 0-9.84 3.894 8.006 8.006 0 0 1-.205-.373 8.374 8.374 0 0 1-1.021-4.283c.086-1.922.939-3.578 2.46-4.377 1.52-.8 3.366-.578 5.002.41a8.46 8.46 0 0 1 2.989 3.266z" fill="#3F3D56"/>
      <ellipse fill="#3F3D56" transform="rotate(-27.84 72.456 114.31)" cx="72.456" cy="114.31" rx="5.338" ry="6.988"/>
      <ellipse fill="#3F3D56" transform="rotate(-27.84 68.469 106.759)" cx="68.469" cy="106.759" rx="5.338" ry="6.988"/>
      <ellipse fill="#3F3D56" transform="rotate(-27.84 64.48 99.208)" cx="64.479" cy="99.208" rx="5.338" ry="6.988"/>
      <ellipse fill="#3F3D56" transform="rotate(-27.84 60.487 91.658)" cx="60.487" cy="91.658" rx="5.338" ry="6.988"/>
      <path d="M15.514 49.328a26.207 26.207 0 0 1-3.124-1.64l11.328-8.606-13.361 7.184A25.596 25.596 0 0 1 .463 28.582l22.927-.168L.35 24.992A25.565 25.565 0 0 1 15.06 2.804a25.584 25.584 0 0 1 26.47 2.913 25.56 25.56 0 0 1 9.53 24.857 25.443 25.443 0 0 1 4.756 2.762l-11.68 16.86L58.26 35.374a25.592 25.592 0 0 1 7.569 23.152c12.19 5.416 18.168 19.29 13.73 31.866-4.438 12.577-17.802 19.63-30.694 16.201-12.893-3.428-20.983-16.187-18.583-29.305-10.78-4.797-16.88-16.343-14.76-27.947l-.009-.012z" fill="#674B7C"/>
      <path d="M63.283 41.984a25.45 25.45 0 0 1 2.547 16.528c12.19 5.417 18.168 19.29 13.73 31.867-4.438 12.576-17.802 19.63-30.694 16.201-12.893-3.428-20.983-16.187-18.583-29.305-5.064-2.246 31.66-37.828 33-35.291z" fill="#000" opacity=".1"/>
    </g>
    <g opacity=".2" transform="translate(276 28)">
      <path d="M7.625 175.151c-.249.694-.439 1.408-.567 2.135a408.675 408.675 0 0 1 14.333 3.484c.074-.176.148-.365.218-.554a11.69 11.69 0 0 0 .572-6.103c-.49-2.627-1.983-4.745-4.24-5.561-2.258-.817-4.755-.152-6.82 1.543a11.734 11.734 0 0 0-3.496 5.056z" fill="#3F3D56"/>
      <ellipse fill="#3F3D56" transform="rotate(-70.04 18.675 166.517)" cx="18.675" cy="166.517" rx="9.717" ry="7.434"/>
      <ellipse fill="#3F3D56" transform="rotate(-70.115 22.29 155.027)" cx="22.291" cy="155.027" rx="9.713" ry="7.431"/>
      <ellipse fill="#3F3D56" transform="rotate(-70.04 26.8 144.194)" cx="26.799" cy="144.194" rx="9.717" ry="7.434"/>
      <ellipse fill="#3F3D56" transform="rotate(-70.04 30.86 133.035)" cx="30.86" cy="133.035" rx="9.717" ry="7.434"/>
      <path d="M84.833 66.15a35.447 35.447 0 0 0 3.997-2.874L71.556 53.61l19.812 7.347a35.565 35.565 0 0 0 10.282-26.243l-31.669 4.137 31.139-9.12C98.787 16.63 89.318 5.926 76.58 1.99a35.678 35.678 0 0 0-35.956 9.052 35.498 35.498 0 0 0-8.416 36.04 35.772 35.772 0 0 0-6.033 4.707l19.33 21.002-22.32-17.735A35.509 35.509 0 0 0 17.18 88.39C1.403 98.18-4.187 118.422 4.34 134.893c8.525 16.47 28.303 23.638 45.433 16.464 17.13-7.174 25.859-26.28 20.052-43.89 13.964-8.661 20.177-25.733 15.037-41.318h-.03z" fill="#674B7C"/>
      <path d="M17.517 65.131a35.342 35.342 0 0 0-.354 23.26c-15.776 9.788-21.366 30.031-12.84 46.502 8.525 16.47 28.304 23.638 45.434 16.464 17.13-7.174 25.858-26.28 20.051-43.89 6.544-4.047-50.926-46.083-52.291-42.336z" fill="#000" opacity=".1"/>
    </g>
    <ellipse fill="#674B7C" cx="73.5" cy="263" rx="27.5" ry="5"/>
    <ellipse fill="#3F3D56" cx="73.5" cy="261" rx="3.5" ry="4"/>
    <ellipse fill="#3F3D56" cx="73.5" cy="256" rx="3.5" ry="4"/>
    <ellipse fill="#3F3D56" cx="73.5" cy="251" rx="3.5" ry="4"/>
    <ellipse fill="#3F3D56" cx="73.5" cy="245" rx="3.5" ry="4"/>
    <ellipse fill="#3F3D56" cx="73.5" cy="240" rx="3.5" ry="4"/>
    <ellipse fill="#3F3D56" cx="73.5" cy="235" rx="3.5" ry="4"/>
    <ellipse fill="#3F3D56" cx="73.5" cy="230" rx="3.5" ry="4"/>
    <path d="M85.685 194.972c.442-.56.843-1.15 1.201-1.767l-8.496-1.389 9.19.07a15.374 15.374 0 0 0 .297-12.221l-12.331 6.365 11.373-8.317a15.515 15.515 0 0 0-14.163-7.695c-5.796.276-10.951 3.752-13.359 9.008a15.369 15.369 0 0 0 1.927 15.946c-.69.871-1.285 1.813-1.771 2.811l11.035 5.708-11.766-3.933a15.374 15.374 0 0 0 2.502 14.486c-4.996 6.322-4.27 15.405 1.666 20.863 5.936 5.457 15.089 5.457 21.025 0 5.936-5.458 6.661-14.54 1.666-20.863a15.37 15.37 0 0 0 0-19.072h.004z" fill="#674B7C"/>
    <path d="M58.013 204.225a15.5 15.5 0 0 0 3.304 9.616c-4.998 6.374-4.272 15.53 1.666 21.032a15.464 15.464 0 0 0 21.034 0c5.938-5.502 6.664-14.658 1.666-21.032 2.094-2.644-27.67-11.343-27.67-9.616z" fill="#000" opacity=".1"/>
    <rect fill="#35323E" x="110" y="73" width="198" height="43" rx="7.42"/>
    <path d="M126.18 21S129 97.093 124 106h169s-7.179-58.53 0-85H126.18z" fill="#FFF"/>
    <path d="M126.18 21S129 97.093 124 106h169s-7.179-58.53 0-85H126.18z" fill="#000" opacity=".03"/>
    <path fill="#35323E" d="M144 103h124v16H144z"/>
    <path d="M322.778 284H93.238a12.25 12.25 0 0 1-9.12-4.066 12.185 12.185 0 0 1-3.043-9.49l4.695-42.197c.309-2.805.532-5.617.669-8.436l.882-28.61c.202-6.465.64-12.913 1.313-19.345.35-3.334.76-6.662 1.231-9.983l6.037-41.946c1.588-10.854 10.916-18.904 21.913-18.91h9.167a21.58 21.58 0 0 1 12.89 4.326c9.496 7.069 36.473 12.169 68.276 12.169 31.803 0 58.784-5.1 68.3-12.186a21.58 21.58 0 0 1 12.89-4.326h14.85c6.444 0 11.957 4.615 13.075 10.945l8.104 45.843c.821 4.66 1.517 9.34 2.09 14.04a261.169 261.169 0 0 1 1.792 23.54l.821 26.584a149.19 149.19 0 0 0 1.44 16.565l4.354 30.416a13.16 13.16 0 0 1-3.092 10.516 13.232 13.232 0 0 1-9.994 4.551z" fill="#464353"/>
    <rect fill="#000" opacity=".1" x="99" y="178" width="219" height="94" rx="19.96"/>
    <ellipse fill="#674B7C" cx="113.5" cy="189" rx="6.5" ry="5"/>
    <ellipse fill="#000" opacity=".1" cx="113.5" cy="189" rx="6.5" ry="5"/>
    <ellipse fill="#674B7C" cx="113.5" cy="188" rx="6.5" ry="5"/>
    <ellipse fill="#35323E" cx="120.5" cy="207" rx="6.5" ry="5"/>
    <ellipse fill="#000" opacity=".1" cx="120.5" cy="207" rx="6.5" ry="5"/>
    <ellipse fill="#35323E" cx="120.5" cy="206" rx="6.5" ry="5"/>
    <ellipse fill="#35323E" cx="124.5" cy="226" rx="6.5" ry="5"/>
    <ellipse fill="#000" opacity=".1" cx="124.5" cy="226" rx="6.5" ry="5"/>
    <ellipse fill="#35323E" cx="124.5" cy="224" rx="6.5" ry="5"/>
    <ellipse fill="#35323E" cx="108.5" cy="228" rx="6.5" ry="5"/>
    <ellipse fill="#000" opacity=".1" cx="108.5" cy="228" rx="6.5" ry="5"/>
    <ellipse fill="#35323E" cx="108.5" cy="226" rx="6.5" ry="5"/>
    <ellipse fill="#35323E" cx="132.5" cy="244" rx="6.5" ry="5"/>
    <ellipse fill="#000" opacity=".1" cx="132.5" cy="244" rx="6.5" ry="5"/>
    <ellipse fill="#35323E" cx="132.5" cy="243" rx="6.5" ry="5"/>
    <ellipse fill="#35323E" cx="110.5" cy="244" rx="6.5" ry="5"/>
    <ellipse fill="#000" opacity=".1" cx="110.5" cy="244" rx="6.5" ry="5"/>
    <ellipse fill="#35323E" cx="110.5" cy="244" rx="6.5" ry="5"/>
    <ellipse fill="#35323E" cx="149.5" cy="244" rx="6.5" ry="5"/>
    <ellipse fill="#000" opacity=".1" cx="149.5" cy="244" rx="6.5" ry="5"/>
    <ellipse fill="#35323E" cx="149.5" cy="243" rx="6.5" ry="5"/>
    <ellipse fill="#35323E" cx="168.5" cy="244" rx="6.5" ry="5"/>
    <ellipse fill="#000" opacity=".1" cx="168.5" cy="244" rx="6.5" ry="5"/>
    <ellipse fill="#35323E" cx="168.5" cy="243" rx="6.5" ry="5"/>
    <ellipse fill="#35323E" cx="184.5" cy="244" rx="6.5" ry="5"/>
    <ellipse fill="#000" opacity=".1" cx="184.5" cy="244" rx="6.5" ry="5"/>
    <ellipse fill="#35323E" cx="184.5" cy="243" rx="6.5" ry="5"/>
    <ellipse fill="#35323E" cx="203.5" cy="244" rx="6.5" ry="5"/>
    <ellipse fill="#000" opacity=".1" cx="203.5" cy="244" rx="6.5" ry="5"/>
    <ellipse fill="#35323E" cx="203.5" cy="243" rx="6.5" ry="5"/>
    <ellipse fill="#35323E" cx="219.5" cy="244" rx="6.5" ry="5"/>
    <ellipse fill="#000" opacity=".1" cx="219.5" cy="244" rx="6.5" ry="5"/>
    <ellipse fill="#35323E" cx="219.5" cy="243" rx="6.5" ry="5"/>
    <ellipse fill="#35323E" cx="237.5" cy="244" rx="6.5" ry="5"/>
    <ellipse fill="#000" opacity=".1" cx="237.5" cy="244" rx="6.5" ry="5"/>
    <ellipse fill="#35323E" cx="237.5" cy="243" rx="6.5" ry="5"/>
    <ellipse fill="#35323E" cx="255.5" cy="244" rx="6.5" ry="5"/>
    <ellipse fill="#000" opacity=".1" cx="255.5" cy="244" rx="6.5" ry="5"/>
    <ellipse fill="#35323E" cx="255.5" cy="243" rx="6.5" ry="5"/>
    <ellipse fill="#35323E" cx="271.5" cy="244" rx="6.5" ry="5"/>
    <ellipse fill="#000" opacity=".1" cx="271.5" cy="244" rx="6.5" ry="5"/>
    <ellipse fill="#35323E" cx="271.5" cy="243" rx="6.5" ry="5"/>
    <ellipse fill="#35323E" cx="291.5" cy="244" rx="6.5" ry="5"/>
    <ellipse fill="#000" opacity=".1" cx="291.5" cy="244" rx="6.5" ry="5"/>
    <ellipse fill="#35323E" cx="291.5" cy="243" rx="6.5" ry="5"/>
    <ellipse fill="#35323E" cx="310.5" cy="244" rx="6.5" ry="5"/>
    <ellipse fill="#000" opacity=".1" cx="310.5" cy="244" rx="6.5" ry="5"/>
    <ellipse fill="#35323E" cx="310.5" cy="243" rx="6.5" ry="5"/>
    <ellipse fill="#35323E" cx="142.5" cy="226" rx="6.5" ry="5"/>
    <ellipse fill="#000" opacity=".1" cx="142.5" cy="226" rx="6.5" ry="5"/>
    <ellipse fill="#35323E" cx="142.5" cy="224" rx="6.5" ry="5"/>
    <ellipse fill="#35323E" cx="159.5" cy="226" rx="6.5" ry="5"/>
    <ellipse fill="#000" opacity=".1" cx="159.5" cy="226" rx="6.5" ry="5"/>
    <ellipse fill="#35323E" cx="159.5" cy="224" rx="6.5" ry="5"/>
    <ellipse fill="#35323E" cx="176.5" cy="226" rx="6.5" ry="5"/>
    <ellipse fill="#000" opacity=".1" cx="176.5" cy="226" rx="6.5" ry="5"/>
    <ellipse fill="#35323E" cx="176.5" cy="224" rx="6.5" ry="5"/>
    <ellipse fill="#35323E" cx="194.5" cy="226" rx="6.5" ry="5"/>
    <ellipse fill="#000" opacity=".1" cx="194.5" cy="226" rx="6.5" ry="5"/>
    <ellipse fill="#35323E" cx="194.5" cy="224" rx="6.5" ry="5"/>
    <ellipse fill="#35323E" cx="211.5" cy="226" rx="6.5" ry="5"/>
    <ellipse fill="#000" opacity=".1" cx="211.5" cy="226" rx="6.5" ry="5"/>
    <ellipse fill="#35323E" cx="211.5" cy="224" rx="6.5" ry="5"/>
    <ellipse fill="#35323E" cx="228.5" cy="226" rx="6.5" ry="5"/>
    <ellipse fill="#000" opacity=".1" cx="228.5" cy="226" rx="6.5" ry="5"/>
    <ellipse fill="#35323E" cx="228.5" cy="224" rx="6.5" ry="5"/>
    <ellipse fill="#35323E" cx="246.5" cy="226" rx="6.5" ry="5"/>
    <ellipse fill="#000" opacity=".1" cx="246.5" cy="226" rx="6.5" ry="5"/>
    <ellipse fill="#35323E" cx="246.5" cy="224" rx="6.5" ry="5"/>
    <ellipse fill="#35323E" cx="264.5" cy="226" rx="6.5" ry="5"/>
    <ellipse fill="#000" opacity=".1" cx="264.5" cy="226" rx="6.5" ry="5"/>
    <ellipse fill="#35323E" cx="264.5" cy="224" rx="6.5" ry="5"/>
    <ellipse fill="#35323E" cx="281.5" cy="226" rx="6.5" ry="5"/>
    <ellipse fill="#000" opacity=".1" cx="281.5" cy="226" rx="6.5" ry="5"/>
    <ellipse fill="#35323E" cx="281.5" cy="224" rx="6.5" ry="5"/>
    <ellipse fill="#35323E" cx="299.5" cy="226" rx="6.5" ry="5"/>
    <ellipse fill="#000" opacity=".1" cx="299.5" cy="226" rx="6.5" ry="5"/>
    <ellipse fill="#35323E" cx="299.5" cy="224" rx="6.5" ry="5"/>
    <ellipse fill="#35323E" cx="137.5" cy="207" rx="6.5" ry="5"/>
    <ellipse fill="#000" opacity=".1" cx="137.5" cy="207" rx="6.5" ry="5"/>
    <ellipse fill="#35323E" cx="137.5" cy="206" rx="6.5" ry="5"/>
    <ellipse fill="#35323E" cx="155.5" cy="207" rx="6.5" ry="5"/>
    <ellipse fill="#000" opacity=".1" cx="155.5" cy="207" rx="6.5" ry="5"/>
    <ellipse fill="#35323E" cx="155.5" cy="206" rx="6.5" ry="5"/>
    <ellipse fill="#35323E" cx="172.5" cy="207" rx="6.5" ry="5"/>
    <ellipse fill="#000" opacity=".1" cx="172.5" cy="207" rx="6.5" ry="5"/>
    <ellipse fill="#35323E" cx="172.5" cy="206" rx="6.5" ry="5"/>
    <ellipse fill="#35323E" cx="189.5" cy="207" rx="6.5" ry="5"/>
    <ellipse fill="#000" opacity=".1" cx="189.5" cy="207" rx="6.5" ry="5"/>
    <ellipse fill="#35323E" cx="189.5" cy="206" rx="6.5" ry="5"/>
    <ellipse fill="#35323E" cx="206.5" cy="207" rx="6.5" ry="5"/>
    <ellipse fill="#000" opacity=".1" cx="206.5" cy="207" rx="6.5" ry="5"/>
    <ellipse fill="#35323E" cx="206.5" cy="206" rx="6.5" ry="5"/>
    <ellipse fill="#35323E" cx="223.5" cy="207" rx="6.5" ry="5"/>
    <ellipse fill="#000" opacity=".1" cx="223.5" cy="207" rx="6.5" ry="5"/>
    <ellipse fill="#35323E" cx="223.5" cy="206" rx="6.5" ry="5"/>
    <ellipse fill="#35323E" cx="241.5" cy="207" rx="6.5" ry="5"/>
    <ellipse fill="#000" opacity=".1" cx="241.5" cy="207" rx="6.5" ry="5"/>
    <ellipse fill="#35323E" cx="241.5" cy="206" rx="6.5" ry="5"/>
    <ellipse fill="#35323E" cx="258.5" cy="207" rx="6.5" ry="5"/>
    <ellipse fill="#000" opacity=".1" cx="258.5" cy="207" rx="6.5" ry="5"/>
    <ellipse fill="#35323E" cx="258.5" cy="206" rx="6.5" ry="5"/>
    <ellipse fill="#35323E" cx="277.5" cy="207" rx="6.5" ry="5"/>
    <ellipse fill="#000" opacity=".1" cx="277.5" cy="207" rx="6.5" ry="5"/>
    <ellipse fill="#35323E" cx="277.5" cy="206" rx="6.5" ry="5"/>
    <ellipse fill="#35323E" cx="294.5" cy="207" rx="6.5" ry="5"/>
    <ellipse fill="#000" opacity=".1" cx="294.5" cy="207" rx="6.5" ry="5"/>
    <ellipse fill="#35323E" cx="294.5" cy="206" rx="6.5" ry="5"/>
    <ellipse fill="#35323E" cx="129.5" cy="189" rx="6.5" ry="5"/>
    <ellipse fill="#000" opacity=".1" cx="129.5" cy="189" rx="6.5" ry="5"/>
    <ellipse fill="#35323E" cx="129.5" cy="188" rx="6.5" ry="5"/>
    <ellipse fill="#35323E" cx="146.5" cy="189" rx="6.5" ry="5"/>
    <ellipse fill="#000" opacity=".1" cx="146.5" cy="189" rx="6.5" ry="5"/>
    <ellipse fill="#35323E" cx="146.5" cy="188" rx="6.5" ry="5"/>
    <ellipse fill="#35323E" cx="163.5" cy="189" rx="6.5" ry="5"/>
    <ellipse fill="#000" opacity=".1" cx="163.5" cy="189" rx="6.5" ry="5"/>
    <ellipse fill="#35323E" cx="163.5" cy="188" rx="6.5" ry="5"/>
    <ellipse fill="#35323E" cx="180.5" cy="189" rx="6.5" ry="5"/>
    <ellipse fill="#000" opacity=".1" cx="180.5" cy="189" rx="6.5" ry="5"/>
    <ellipse fill="#35323E" cx="180.5" cy="188" rx="6.5" ry="5"/>
    <ellipse fill="#35323E" cx="197.5" cy="189" rx="6.5" ry="5"/>
    <ellipse fill="#000" opacity=".1" cx="197.5" cy="189" rx="6.5" ry="5"/>
    <ellipse fill="#35323E" cx="197.5" cy="188" rx="6.5" ry="5"/>
    <ellipse fill="#35323E" cx="215.5" cy="189" rx="6.5" ry="5"/>
    <ellipse fill="#000" opacity=".1" cx="215.5" cy="189" rx="6.5" ry="5"/>
    <ellipse fill="#35323E" cx="215.5" cy="188" rx="6.5" ry="5"/>
    <ellipse fill="#35323E" cx="232.5" cy="189" rx="6.5" ry="5"/>
    <ellipse fill="#000" opacity=".1" cx="232.5" cy="189" rx="6.5" ry="5"/>
    <ellipse fill="#35323E" cx="232.5" cy="188" rx="6.5" ry="5"/>
    <ellipse fill="#35323E" cx="249.5" cy="189" rx="6.5" ry="5"/>
    <ellipse fill="#000" opacity=".1" cx="249.5" cy="189" rx="6.5" ry="5"/>
    <ellipse fill="#35323E" cx="249.5" cy="188" rx="6.5" ry="5"/>
    <ellipse fill="#35323E" cx="267.5" cy="189" rx="6.5" ry="5"/>
    <ellipse fill="#000" opacity=".1" cx="267.5" cy="189" rx="6.5" ry="5"/>
    <ellipse fill="#35323E" cx="267.5" cy="188" rx="6.5" ry="5"/>
    <ellipse fill="#35323E" cx="284.5" cy="189" rx="6.5" ry="5"/>
    <ellipse fill="#000" opacity=".1" cx="284.5" cy="189" rx="6.5" ry="5"/>
    <ellipse fill="#35323E" cx="284.5" cy="188" rx="6.5" ry="5"/>
    <ellipse fill="#674B7C" cx="301.5" cy="189" rx="6.5" ry="5"/>
    <ellipse fill="#000" opacity=".1" cx="301.5" cy="189" rx="6.5" ry="5"/>
    <ellipse fill="#674B7C" cx="301.5" cy="188" rx="6.5" ry="5"/>
    <rect fill="#35323E" x="113" y="256" width="192" height="10" rx="5"/>
    <rect fill="#000" opacity=".1" x="113" y="256" width="192" height="10" rx="5"/>
    <rect fill="#35323E" x="113" y="256" width="192" height="10" rx="5"/>
    <path d="M278 135.697c0 10.77-34.229 22.303-72.82 22.303-38.592 0-67.18-12.426-67.18-23.196 0-10.77 28.596-15.804 67.18-15.804 38.583 0 72.82 5.928 72.82 16.697z" fill="#000" opacity=".1"/>
    <ellipse fill="#464353" cx="313" cy="93.5" rx="4" ry="10.5"/>
    <ellipse fill="#464353" cx="106" cy="93.5" rx="4" ry="10.5"/>
    <path fill="#000" opacity=".1" d="M108 91h204v3H108z"/>
    <path fill="#464353" d="M108 91h204v3H108z"/>
    <path d="M213.07 94.02C211.285 93.487 208 104 208 104h10s-3.145-9.448-4.93-9.98zm-.14 1.329a.961.961 0 0 1 .89.572c.15.349.07.75-.205 1.019a.981.981 0 0 1-1.047.204.933.933 0 0 1-.594-.863.92.92 0 0 1 .281-.66.975.975 0 0 1 .68-.272h-.005zm.114 3.007c1.17.277 3.245 5.244 3.245 5.244h-6.578s2.166-5.525 3.36-5.244h-.027z" fill="#464353" fill-rule="nonzero"/>
    <path d="M327 172H88c.35-3.342.761-6.677 1.232-10.006l6.04-42.041c1.59-10.878 10.925-18.946 21.93-18.953h9.174a21.574 21.574 0 0 1 12.898 4.336c9.503 7.085 36.499 12.197 68.325 12.197 31.825 0 58.834-5.096 68.357-12.197A21.574 21.574 0 0 1 288.854 101h14.862a13.28 13.28 0 0 1 13.083 10.97l8.11 45.947A272.031 272.031 0 0 1 327 172z" fill="#FFF" opacity=".03"/>
    <g transform="translate(173 187)">
      <path d="M27.732 37.298s-4.714-8.609-3.917-9.995a18.676 18.676 0 0 0 1.377-3.423s1.742-1.189 1.742-1.68c0-.493 1.377-1.608 2.104-2.095.728-.488.362-2.796 0-3.075a6.204 6.204 0 0 1-.937-1.259s.502-1.398 0-1.816c-.501-.418.074-.82 0-1.258a17.79 17.79 0 0 1 0-1.956 3.172 3.172 0 0 0-1.853-1.345l-.053-.221-.313-1.304s1.504-2.87-.937-4.395a4.783 4.783 0 0 0-.542-.286V3a12.194 12.194 0 0 0-.358-2.209c-.127-.41-.292-.676-.51-.615a.337.337 0 0 0-.135.078c-.1.09-.187.194-.259.308a5.231 5.231 0 0 0-.575 1.598 9.208 9.208 0 0 0-.165 1.005c-.106.202-.2.41-.28.623-.295.767-.644 2.099 0 3.083.54.82 1.258 1.984 1.784 2.82v.03l.033.048-.053.037v.127l.045.706.411 6.087a2.471 2.471 0 0 0-.37-.077c-.18-.029-.36-.041-.542-.037-.354-1.386-1.328-2.682-1.5-4.129-.02-.144-.03-.289-.029-.434 0-.914.242-1.829.222-2.739.01-.168.01-.336 0-.504v-.14a4.1 4.1 0 0 0-2.244-3.115c-.41-.21-.875-.349-1.286-.578-.945-.529-1.55-1.484-2.408-2.136a2.656 2.656 0 0 0-2.306-.5c-.38.057-.755.135-1.126.233-.901.235-1.765.592-2.568 1.062-.107.066-.218.131-.321.21a1.432 1.432 0 0 0-.518.602c-.072.21-.1.431-.082.652v.48c-.05 2.672-2.938 4.75-3.177 7.379V13.64c.041 1.147.637 2.213.748 3.357v.303a5.073 5.073 0 0 1-.296 1.538c-.364.092-.714.23-1.043.41-.876.561-2.466 1.537-3.042 3.398-.15.483-.225.987-.221 1.493a31.108 31.108 0 0 1-.49 5.329 10.47 10.47 0 0 1-.308 1.312.294.294 0 0 0 0 .127l-.345 4.51-.066.795-.086 1.131s.025.07.062.185c.037.115.094.311.14.52.096.384.111.783.045 1.173a.82.82 0 0 1-.247.41l-.029.033a3.465 3.465 0 0 0-.263 1.148c-.033.237-.057.496-.086.783-.169 1.779-.275 4.448-.337 6.653C.16 50.454.14 52.143.14 52.143c.282.181.584.33.9.443-.027.06-.05.122-.07.184a8.567 8.567 0 0 0-.547 2.296c-.144 1.64.317 3.472 2.618 4.415.147.06.298.111.452.152a1.43 1.43 0 0 0 1.147-.07v.291c.024.41.045.78.053 1.095.074 1.956.56 5.379.56 5.379s.168 1.398.02 1.82c-.148.422 0 2.095 0 2.095s.51.82 0 1.258c-.51.44-.65 2.518-.506 2.796a.184.184 0 0 0 0 .033c.111.693-.518 11.012-.518 11.012s-.591 1.578-1.06 3.218c-.468 1.64-.822 3.25-.382 3.558a3.5 3.5 0 0 0 1.327.357v.21a6.083 6.083 0 0 1-.292 1.733c-.2.283-.41 2.489-.513 3.69v.131a12.004 12.004 0 0 0-.543 1.566s-1.602 4.005-1.06 5.055a.82.82 0 0 0 .201.246.304.304 0 0 0 .054.05c.772.614 2.708.745 3.41.774l-.024.992v.07h.917v-.025c0-.127.02-.7.049-1.472v-.41-.352c.275-.713.414-1.47.41-2.234.001-.876.12-1.747.354-2.591.114-.435.27-.858.465-1.263a5.746 5.746 0 0 0-.115-2.57 1.782 1.782 0 0 0-.33-.579.924.924 0 0 0 0-.106v-.23c-.01-.72.062-1.44.215-2.144a.078.078 0 0 1 0-.033c0-.061.024-.114.04-.172v-.037h.296c.909.029 1.579.029 1.579.029s.727-3.69.653-5.33v-.217c.031-1.266.178-2.527.44-3.767l.58-5.658a3.023 3.023 0 0 1 0-1.68c.18-.41.55-1.23.821-1.784.12-.258.218-.46.259-.545v-.045a1.234 1.234 0 0 1-.259-.131c-.238-.16-.448-.468.259-.919 1.089-.7.727-2.46.727-2.46-.181-.38-.16-.827.058-1.188.378-.558 0-2.657 0-2.657.311-.553.56-1.139.744-1.746.271-.82.953-4.92 1.274-6.9.107-.648.172-1.066.172-1.066v.213l.09.93v.124l.165 1.763s.337 4.632.128 6.448a1.996 1.996 0 0 1-.123.582c-.383.874-.313 4.33-.293 5.092v.156a2.692 2.692 0 0 0-.205 1.18c.014.127.06.248.131.353a.884.884 0 0 1 .132.545v.242a4.644 4.644 0 0 1-.255.947s-.41 1.021-.242 1.554c.02.069.053.133.098.189.033.062.051.13.054.2.135 1.128-.214 6.1-.411 8.819-.082 1.074-.144 1.8-.144 1.8l-.575 5.94.057.037c.066.049.19.127.354.225l-.025.18c-.082.575-.193 1.23-.312 1.747a1.097 1.097 0 0 0-.03.11c-.22.04-.43.123-.616.247-1.232 2.164-.682 3.878 0 4.378.244.287.388.645.411 1.021l.169 2.156v.25c0 .067.012.134.033.197l.053.652.07.91h.555v-1.037h.033c.88.033 2.293.07 2.913.02h.165a.317.317 0 0 0 .098-.028c.325-.156 1.143-2.46.411-2.985-.731-.524-.896-2-.896-2-.065-.197-.127-.382-.193-.558a.998.998 0 0 1 0-.11 9.198 9.198 0 0 1 .087-1.92c.122-.757.187-1.523.193-2.29v-.214c.127-.03.252-.07.374-.119h.029c.224-.094.434-.218.624-.369l2.034-9.085.214-1.057 1.233-6.006s-.431-2.095 0-2.46c.16-.127.205-.664.193-1.296 0-1.098-.193-2.46-.193-2.46s.58-.905.871-1.467c.292-.562 0-2.025 0-2.025l.58-3.354a31.621 31.621 0 0 1 2.252-7.342c1.175-2.46.41-9.13-.341-12.68l-.062-.267 1.27-.615.177-.082c.595-.278 1.232-.565 1.791-.82h.037c.403-.174.815-.329 1.233-.463.124-.04.253-.066.382-.078 1.028-.127-2.021-5.432-2.021-5.432zM5.038 48.671h.3c-.037.065-.07.13-.102.2a1.06 1.06 0 0 0-.058.12c-.111.225-.21.456-.296.692.033-.25.074-.52.12-.82l.036-.192zm-.822 4.362v-.025c0-.025 0-.053-.028-.078l-.05-.16c.103-.033.21-.065.317-.106v.057c0 .02-.02.156-.029.234v.217c0 .062-.033.234-.045.348l-.099-.311c-.024-.074-.04-.131-.061-.185l-.005.009z" fill="url(#a)" fill-rule="nonzero"/>
      <path d="M25.993 10.47l-1.808.644-.658-1.09c-.505-.82-1.204-1.98-1.717-2.813-.909-1.463.279-3.69.279-3.69s.21-2.23.978-2.927c.769-.696.978 2.928.978 2.928 3.07 1.39 1.426 4.665 1.426 4.665l.296 1.3.226.983z" fill="#BE6F72"/>
      <path d="M25.993 10.47l-1.808.644-.658-1.09v-.095a3.17 3.17 0 0 1 2.248-.442l.218.983z" fill="#000" opacity=".1"/>
      <path d="M23.067 17.8l.908-.766-.456-6.896a2.882 2.882 0 0 1 4.085.923c-.036.65-.036 1.301 0 1.951.07.41-.489.82 0 1.23.49.41 0 1.812 0 1.812.247.454.55.875.9 1.255.35.278.699 2.578 0 3.066s-2.026 1.603-2.026 2.09c0 .489-1.673 1.67-1.673 1.67L23.33 22.19l-.263-4.39z" fill="#674B7C"/>
      <path d="M3.444 59.67C.058 58.24.81 54.75 1.447 52.98c.13-.356.279-.704.448-1.042l1.898-1.152s.386.988.802 2.312c.961 3.059 2.067 7.933-1.151 6.572zM8.096 91.594c-.23.445-.4.92-.506 1.41a10.008 10.008 0 0 0-.21 2.398c.006.308.026.616.062.923L3.67 98.91s.02-.303.057-.75c.099-1.185.3-3.382.494-3.665.176-.56.272-1.143.283-1.73.058-.717.082-1.381.082-1.381s4.53-1.698 3.51.209zM16.997 93.463s0 .717-.024 1.558a15.95 15.95 0 0 1-.181 2.283 9.1 9.1 0 0 0-.087 1.91c.025.82.087 1.587.087 1.587s-3.85-3.628-3.46-3.915c.168-.244.274-.525.308-.82a22.22 22.22 0 0 0 .3-1.742c.094-.676.152-1.23.152-1.23l2.905.37z" fill="#BE6F72"/>
      <path d="M8.096 91.594c-.23.445-.4.92-.506 1.41a30.504 30.504 0 0 1-3.086-.238c.058-.717.082-1.381.082-1.381s4.53-1.698 3.51.209zM16.997 93.463s0 .717-.024 1.558c-1.2.303-2.433-.308-3.033-.677.094-.676.152-1.23.152-1.23l2.905.35z" fill="#000" opacity=".1"/>
      <path d="M24.884 57.858a32.397 32.397 0 0 0-2.166 7.318l-.56 3.34s.28 1.464 0 2.022c-.279.558-.821 1.464-.821 1.464s.41 3.415 0 3.763c-.411.348 0 2.435 0 2.435l-1.397 7.04-1.952 9.043c-1.887 1.533-4.393-.41-4.393-.41l.554-5.924s.822-10.38.49-10.798c-.334-.418.14-1.739.14-1.739s.488-1.254.139-1.742c-.35-.488.07-1.533.07-1.533s-.14-4.251.28-5.227c.418-.976 0-7.01 0-7.01l-.178-1.878-.094-1.041v-.103l-.169 1.066c-.308 1.964-.965 6.039-1.232 6.88a8.659 8.659 0 0 1-.72 1.737s.366 2.091 0 2.649a1.293 1.293 0 0 0-.053 1.185s.35 1.742-.699 2.46c-1.048.717 0 1.045 0 1.045s-.768 1.672-1.048 2.37a3.063 3.063 0 0 0 0 1.668l-.559 5.645a20.45 20.45 0 0 0-.41 3.973c.07 1.598-.63 5.292-.63 5.292s-5.375 0-6.205-.627c-.83-.627 1.39-6.756 1.39-6.756s.628-10.729.488-11.008c-.14-.279 0-2.37.49-2.787.488-.419 0-1.255 0-1.255s-.14-1.673 0-2.09a7.546 7.546 0 0 0-.025-1.813s-.465-3.41-.535-5.362-.41-6.342-.41-6.342.361-2.71.41-4.006a4.645 4.645 0 0 1 .498-1.64 14.99 14.99 0 0 1 1.035-1.824s16.554-4.874 17.26-4.386c.181.127.453.996.716 2.27.702 3.555 1.426 10.176.296 12.636z" fill="#674B7C"/>
      <path d="M24.884 57.858a32.397 32.397 0 0 0-2.166 7.318l-.56 3.34s.28 1.464 0 2.022c-.279.558-.821 1.464-.821 1.464s.41 3.415 0 3.763c-.411.348 0 2.435 0 2.435l-1.397 7.04-1.952 9.043c-1.887 1.533-4.393-.41-4.393-.41l.554-5.924s.822-10.38.49-10.798c-.334-.418.14-1.739.14-1.739s.488-1.254.139-1.742c-.35-.488.07-1.533.07-1.533s-.14-4.251.28-5.227c.418-.976 0-7.01 0-7.01l-.178-1.878-.094-1.041v-.103l-.169 1.066c-.308 1.964-.965 6.039-1.232 6.88a8.659 8.659 0 0 1-.72 1.737s.366 2.091 0 2.649a1.293 1.293 0 0 0-.053 1.185s.35 1.742-.699 2.46c-1.048.717 0 1.045 0 1.045s-.768 1.672-1.048 2.37a3.063 3.063 0 0 0 0 1.668l-.559 5.645a20.45 20.45 0 0 0-.41 3.973c.07 1.598-.63 5.292-.63 5.292s-5.375 0-6.205-.627c-.83-.627 1.39-6.756 1.39-6.756s.628-10.729.488-11.008c-.14-.279 0-2.37.49-2.787.488-.419 0-1.255 0-1.255s-.14-1.673 0-2.09a7.546 7.546 0 0 0-.025-1.813s-.465-3.41-.535-5.362-.41-6.342-.41-6.342.361-2.71.41-4.006a4.645 4.645 0 0 1 .498-1.64 14.99 14.99 0 0 1 1.035-1.824s16.554-4.874 17.26-4.386c.181.127.453.996.716 2.27.702 3.555 1.426 10.176.296 12.636z" fill="#000" opacity=".15"/>
      <ellipse fill="#A1616A" cx="14.688" cy="10.475" rx="4.821" ry="4.809"/>
      <path d="M24.563 45.223c-.555.283-.925.48-.925.48s-7.808 3.69-10.052 3.484c-1.722-.164-6.115-.074-8.026-.024a14.99 14.99 0 0 1 1.036-1.825s16.553-4.874 17.26-4.386c.16.127.432.996.707 2.27z" fill="#000" opacity=".1"/>
      <path d="M11.334 18.149s-4.471.697-5.515 1.394c-1.044.697-3.144 2.021-3.144 4.874a27.674 27.674 0 0 1-.768 6.621c-.28.82 4.401 7.593 4.401 7.593L4.632 48.88s6.71-.21 8.942 0c2.231.209 10.052-3.485 10.052-3.485s4.607-2.435 5.585-2.505c.978-.07-1.956-5.366-1.956-5.366s-4.52-8.568-3.769-9.962a19.019 19.019 0 0 0 1.328-3.415l-.822-7.105a2.747 2.747 0 0 0-2.306.349c-1.048.766-4.61.348-4.61.348l-5.742.41z" fill="#674B7C"/>
      <path d="M3.756 30.55l-1.746.488-.485 6.56s.624 1.742 0 2.3c-.625.557-.769 12.47-.769 12.47a4.567 4.567 0 0 0 4.397.349s-.349-1.324.7-6.15c1.047-4.825 1.039-7.219 1.039-7.219s0-5.99.489-6.97c.489-.979 0-3.414 0-3.414s-.978-1.324-.908-1.812c.07-.488-2.717 3.398-2.717 3.398z" fill="#000" opacity=".1"/>
      <path d="M4.595 53.098a4.46 4.46 0 0 1-3.148-.119c.13-.355.279-.703.448-1.041l1.898-1.152s.386.988.802 2.312z" fill="#000" opacity=".1"/>
      <path d="M3.653 30.55l-1.746.488-.49 6.56s.63 1.742 0 2.3C.79 40.454.65 52.367.65 52.367a4.575 4.575 0 0 0 4.402.349s-.35-1.324.698-6.15c1.048-4.825 1.044-7.219 1.044-7.219s0-5.99.49-6.97c.488-.979 0-3.414 0-3.414s-.975-1.324-.905-1.812c.07-.488-2.725 3.398-2.725 3.398z" fill="#674B7C"/>
      <path d="M21.53 31.596s-.908 7.789-3.563 9.265c.02 0 5.938-1.673 3.563-9.265zM8.19 32.293s3.288 1.603 2.515 2.714c-.772 1.11-2.515-2.714-2.515-2.714zM8.19 35.494s2.096 2.161 1.677 2.928c-.42.766-1.677-2.928-1.677-2.928zM25.093 17.591s.822 1.394.896 2.3c.074.906-.896-2.3-.896-2.3zM25.093 15.71s.411-.349 1.463 0c1.052.348-1.463 0-1.463 0zM21.058 56.431a9.708 9.708 0 0 1-5.105-.652l-.883 2.247-.095-1.041c.144-.874.411-1.808.978-2.05a8.468 8.468 0 0 0 5.105 1.496zM6.736 59.358s4.294.898 5.498.73l-5.498-.73zM7.18 60.482s1.832-.078 2.749.287l-2.75-.287zM7.389 61.236c.836.18 1.685.295 2.54.34l-2.54-.34zM7.303 70.825c.082-.053 3.67-.886 4.11-.287l-4.11.287zM7.303 71.924s3.119-.365 3.197 0c.078.365-3.197 0-3.197 0zM7.303 72.916s3.329-.68 3.698-.52c.37.159-3.698.52-3.698.52zM7.442 96.333L3.67 98.92s.02-.304.057-.75a10.314 10.314 0 0 1 1.932-3.145c.85-.217 1.389 0 1.722.385.005.309.025.617.061.923z" fill="#000" opacity=".1"/>
      <path d="M7.808 98.65a9.324 9.324 0 0 0-.785 3.84 5.913 5.913 0 0 1-.822 3.096 2.98 2.98 0 0 1-.263.377s-2.622 0-3.538-.78a.89.89 0 0 1-.242-.29c-.526-1.046 1.019-5.043 1.019-5.043a11.088 11.088 0 0 1 2.465-4.727c2.951-.758 2.166 3.526 2.166 3.526z" fill="#35323E"/>
      <path d="M6.222 105.586a2.98 2.98 0 0 1-.263.377s-2.622 0-3.538-.78c.452-1.487 1.89-5.993 2.564-5.226.674.766 1.085 4.165 1.237 5.629z" fill="#000" opacity=".1"/>
      <path d="M5.86 100.236l-.18 6.756h.879s.14-5.92.534-6.748c.395-.828-1.233-.008-1.233-.008z" fill="#35323E"/>
      <path d="M16.792 100.79s-3.85-3.63-3.46-3.916c.168-.244.274-.526.308-.82.74-.131 2.005.18 3.065 3.128.025.84.087 1.607.087 1.607z" fill="#000" opacity=".1"/>
      <path d="M17.367 104.84a.535.535 0 0 1-.094.028 26.868 26.868 0 0 1-3.054 0 .66.66 0 0 1-.64-.656v-.885c-.046-1.03-.174-2.255-.54-2.534-.653-.496-1.175-2.205 0-4.362 0 0 2.253-1.713 3.876 3.44 0 0 .156 1.472.863 1.996.707.525-.099 2.817-.41 2.973z" fill="#35323E"/>
      <path d="M17.273 104.868a26.868 26.868 0 0 1-3.054 0 .66.66 0 0 1-.64-.656v-.885c.283-1.23.69-2.534 1.232-2.825-.037-.004 1.553-.184 2.462 4.366z" fill="#000" opacity=".1"/>
      <path fill="#35323E" d="M13.307 100.346l.419 5.617h.538V99.87z"/>
      <path d="M14.618 2.812a9.625 9.625 0 0 0-4.299 1.378 1.781 1.781 0 0 0-.822.82 2.716 2.716 0 0 0-.065 1c.045 2.87-3.177 5.063-3.074 7.941.04 1.144.616 2.206.719 3.345.176 1.898-.95 3.649-2.03 5.223a4.334 4.334 0 0 0 3.061-1.012 23.096 23.096 0 0 1 .411 11.675h1.545c.153-.01.307.01.452.058.137.063.259.153.358.266 1.442 1.43 2.412 3.55 1.858 5.51l3.287-1.23a9.874 9.874 0 0 0 2.273-1.078 3.28 3.28 0 0 0 1.401-2.017c.086-.5.062-1.103.473-1.394.205-.107.423-.187.65-.238.903-.32 1.302-1.36 1.483-2.295.226-1.15.296-2.325.21-3.493-.145-1.956-.724-3.944-.247-5.85.27-1.07.87-2.05.92-3.178.078-1.824-1.352-3.398-1.566-5.214-.148-1.263.309-2.542.16-3.809a4.1 4.1 0 0 0-2.157-3.107c-.41-.21-.846-.349-1.233-.574-.912-.53-1.491-1.48-2.318-2.132-.826-.652-2.206-.898-2.827-.05l1.377-.545z" fill="#000" opacity=".1"/>
      <path d="M14.618 2.603a9.625 9.625 0 0 0-4.299 1.378 1.781 1.781 0 0 0-.822.82 2.716 2.716 0 0 0-.065 1c.045 2.87-3.177 5.063-3.074 7.94.04 1.145.616 2.21.719 3.346.176 1.902-.95 3.649-2.03 5.223a4.334 4.334 0 0 0 3.078-1 23.096 23.096 0 0 1 .41 11.676h1.546c.153-.01.306.009.452.057.136.063.258.154.357.266 1.443 1.431 2.413 3.55 1.858 5.51l3.288-1.23a9.874 9.874 0 0 0 2.272-1.078 3.28 3.28 0 0 0 1.402-2.017c.086-.5.061-1.103.472-1.394.205-.107.424-.187.65-.237.904-.32 1.302-1.362 1.483-2.296.226-1.15.296-2.325.21-3.493-.144-1.956-.724-3.944-.247-5.85.271-1.07.871-2.07.92-3.177.079-1.825-1.351-3.4-1.565-5.215-.148-1.263.308-2.542.16-3.809a4.1 4.1 0 0 0-2.157-3.107c-.411-.21-.847-.349-1.233-.574-.913-.529-1.492-1.48-2.318-2.132-.826-.652-2.207-.898-2.827-.05l1.36-.557z" fill="#A26565"/>
      <g opacity=".1" fill="#000">
        <path d="M9.44 5.1v.193c-.004-.062 0-.127 0-.193zM21.637 11.799c.129-.881.19-1.77.185-2.661-.13.881-.19 1.77-.185 2.66zM7.089 16.206c-.094-1.037-.58-2.013-.694-3.042-.023.189-.031.38-.025.57.041 1.131.604 2.185.715 3.312.03-.28.032-.56.004-.84zM22.295 20.326a7.084 7.084 0 0 0-.173 2.078c.02-.406.077-.81.173-1.205.27-1.07.87-2.07.92-3.177a3.554 3.554 0 0 0-.029-.59c-.123 1.008-.645 1.914-.891 2.894zM8.125 20.42a4.374 4.374 0 0 1-2.466 1.009c-.193.295-.411.59-.588.873a4.334 4.334 0 0 0 3.054-.992c.61 2.03.938 4.136.974 6.256a22.975 22.975 0 0 0-.974-7.146zM22.336 29.669c-.185.939-.584 1.98-1.488 2.296-.227.05-.445.131-.65.242-.41.29-.386.893-.472 1.39a3.28 3.28 0 0 1-1.401 2.016 9.874 9.874 0 0 1-2.273 1.079l-3.136 1.172a4.27 4.27 0 0 1-.152.93l3.288-1.23a9.874 9.874 0 0 0 2.273-1.077 3.28 3.28 0 0 0 1.401-2.017c.086-.5.062-1.103.473-1.394.205-.107.423-.187.649-.238.904-.32 1.303-1.361 1.488-2.296.188-.975.267-1.968.234-2.96-.025.7-.103 1.398-.234 2.087zM10.907 32.412a1.134 1.134 0 0 0-.358-.267 1.194 1.194 0 0 0-.452-.057H8.73a20.33 20.33 0 0 1-.177.869h1.545c.153-.01.307.01.452.057.137.063.259.154.358.267a6.603 6.603 0 0 1 1.993 3.915c.177-1.738-.723-3.526-1.993-4.784z"/>
      </g>
      <path d="M3.242 38.118s1.233-.525 1.53 0c.295.525-1.53 0-1.53 0zM3.674 39.004s1.233-.525 1.529 0c.296.525-1.529 0-1.529 0z" fill="#000" opacity=".1"/>
    </g>
    <path d="M88 23.478l.112.943 3.777.579s.31-.251.794-.593c.898-.632 2.396-1.584 3.678-1.853 1.974-.422 8.275-3.488 6.24-3.69-2.036-.202-1.817.256-1.817.256s-2.234-2.38-4.55-.202c-1.751 1.652-5.603 3.425-7.353 4.183l-.881.377z" fill="#EFB7B9"/>
    <path d="M103.503 13.478a6.366 6.366 0 0 1 1.781-.467 2.156 2.156 0 0 1 1.7.58c.24.254.408.578.628.833 1.133 1.25 3.334.312 4.7 1.279.84.591 1.1 1.716 1.398 2.716.298 1 .84 2.104 1.843 2.316a5.35 5.35 0 0 0 1.455-.058 1.41 1.41 0 0 1 1.304.491c.465.717-.175 1.925.498 2.438.599.454 1.691-.184 2.111.454a.962.962 0 0 1-.142 1.041c-.25.273-.48.566-.685.875-.223.433-.195.956.072 1.362a1.29 1.29 0 0 0 1.208.58c.407-.042.876-.292 1.247-.075a.918.918 0 0 1 .375.712c.063 1-.656 1.872-1.63 1.979-.722.046-1.386-.354-2.039-.692-.652-.337-1.402-.625-2.075-.346-.307.156-.589.36-.835.605a9.173 9.173 0 0 1-2.564 1.553c-.816.325-1.774.525-2.56.117-.885-.462-1.341-1.591-2.28-1.933-.937-.342-2.009.296-2.906.833-.896.538-2.099 1-2.91.33-.811-.671-.604-2.167-1.138-3.175a3.064 3.064 0 0 0-.852-.958c-.599-.475-1.28-.834-1.879-1.292a3.21 3.21 0 0 1-1.288-1.841c-.175-.913.253-1.83.734-2.617.48-.787 1.047-1.562 1.223-2.474.114-.683 0-1.396.15-2.083a2.535 2.535 0 0 1 1.631-1.75c.44-.154.522-.117.742-.512.203-.4.559-.697.983-.821z" fill="#F86D70"/>
    <g opacity=".1" fill="#000">
      <path d="M118.415 22.285c.093.39.116.795.069 1.194a3.197 3.197 0 0 1-.069-1.194zM120.085 26.787a1.293 1.293 0 0 0-.13.436 1.336 1.336 0 0 1 .045-1.104c.204-.303.43-.589.677-.856.087-.117.153-.248.198-.387.01.012.02.024.028.037a.916.916 0 0 1-.14 1.018 7.573 7.573 0 0 0-.678.856zM99.456 25.736c.592.456 1.266.815 1.859 1.263.342.25.629.569.842.937.528.986.262 2.4 1.125 3.104.863.705 1.996.216 2.88-.321.882-.538 1.903-1.17 2.874-.815.972.354 1.38 1.438 2.254 1.89.779.407 1.722.204 2.533-.114a9.093 9.093 0 0 0 2.536-1.52c.243-.239.522-.438.826-.59.666-.273 1.416 0 2.053.338s1.298.72 2.016.676a1.832 1.832 0 0 0 1.613-1.63c.044.113.073.23.085.35a1.82 1.82 0 0 1-1.613 1.936c-.718.045-1.375-.346-2.016-.676-.642-.33-1.392-.611-2.057-.338a3.328 3.328 0 0 0-.806.59 9.15 9.15 0 0 1-2.537 1.52c-.806.318-1.758.513-2.532.114-.879-.452-1.326-1.556-2.258-1.89-.931-.334-1.988.289-2.87.814-.884.526-2.078.974-2.88.322-.867-.705-.6-2.118-1.129-3.104a2.96 2.96 0 0 0-.843-.937c-.588-.465-1.262-.815-1.859-1.263a3.116 3.116 0 0 1-1.27-1.8 2.115 2.115 0 0 1-.04-.478c.225.657.65 1.224 1.214 1.622z"/>
    </g>
    <path d="M100.363 46.03L99 46.215s1.347 1.386 3.418.477c2.072-.908-2.055-.66-2.055-.66z" fill="#4C4981"/>
    <path d="M100.363 46.03L99 46.215s1.347 1.386 3.418.477c2.072-.908-2.055-.66-2.055-.66z" fill="#000" opacity=".1"/>
    <path d="M130 66.165s1.886.982 3.645 2.122c1.262.829 2.466 1.707 2.848 2.378.937 1.604 5.486 3.335 5.486 3.335l4.52 3.468c1.065.357 2.1 1.658 2.524 2.242.131.178.201.29.201.29l1.812-.236.954-1.243s.242-2.755-1.644-2.722a2.674 2.674 0 0 1-1.06-.274c-2.022-.903-4.853-3.729-4.853-3.729s-4.813-6.061-6.251-6.26a2.343 2.343 0 0 1-.452-.116c-1.463-.518-3.559-2.42-3.559-2.42L130 66.165zM112.092 82.99c.466 2.875 2.607 8.398 3.293 9.548.852 1.426 1.302 4.278 1.302 4.278l.249 1.98c.045.28.139.548.277.793.074.141.156.279.245.411L121 98.886s-.205-.821-.514-1.791c-.31-.97-.775-2.157-1.205-2.6-.863-.872-.996-3.937-.996-3.937s-.719-5.9-.94-6.64a10.3 10.3 0 0 1-.401-2.178 18.88 18.88 0 0 1-.06-1.36 28.552 28.552 0 0 0-.559-4.38l-4.132.768-.109 4.721a3.235 3.235 0 0 0 .008 1.5z" fill="#EFB7B9"/>
    <path d="M149 79.74c.133.16.203.26.203.26l1.826-.211.96-1.111s.245-2.463-1.656-2.434a2.971 2.971 0 0 1-1.068-.244c-.153.74.77 1.348.77 1.348s.381.248.29 1.408c-.054.788-.836.955-1.325.985z" fill="#000" opacity=".1"/>
    <path d="M149 80.106c.113.446 1.199 1.105 1.953 1.513.37.205.66.346.718.376.176.091 1.086-.993 1.211-1.864.125-.871 2.3-3.593 2.3-3.593.46-1.072.734-2.225.809-3.401.082-1.188-.39-1.28-.926-1.013a3.75 3.75 0 0 0-1.035.867c-.372.374-.834.63-1.335.738a6.335 6.335 0 0 0-1.93.88c-.527.362-1.039.804-1.132 1.195-.2.855.714 1.58.714 1.58s.36.284.278 1.584c-.082 1.3-1.637 1.097-1.625 1.138z" fill="#FF6484"/>
    <path d="M151 81.62c.368.204.654.345.712.375.174.091 1.075-.993 1.2-1.864.123-.871 2.278-3.593 2.278-3.593.456-1.072.727-2.225.8-3.401.082-1.188-.386-1.28-.916-1.013-.09.942-.31 2.772-.774 3.726-.518 1.134-2.7 4.781-3.3 5.77zM117.172 99.511a.548.548 0 0 1-.033.071c.076.144.16.283.25.418L121 98.868s-.209-.836-.524-1.822C119.047 96.628 117 99.19 117 99.19l.172.322z" fill="#000" opacity=".1"/>
    <path d="M117.08 103.075s2.745 1.074 3.985.907c.938-.124.979-.611.915-1.61-.022-.317-.052-.687-.067-1.116-.063-1.769-.702-2.123-.702-2.123-1.046-3.06-4.06 1.045-4.06 1.045l.16.333c-.22.52-.325 1.09-.31 1.665 0 .302.027.603.079.9z" fill="#FF6484"/>
    <path d="M117.078 102.492s2.747.59 3.987.498c.938-.068.979-.336.915-.885-.624.318-1.437.462-2.241.396A13.348 13.348 0 0 1 117 102c0 .165.027.33.078.492z" fill="#000" opacity=".1"/>
    <path d="M102 29.286l1.22 5.107.248 1.051 2.275.272 2.34.284 2.56-.88s.713-2.3.124-4.029a2.563 2.563 0 0 0-1.178-1.477c-.18-.1-.345-.223-.491-.365a1.955 1.955 0 0 1-.427-.556c-.124-.255-.2-.53-.222-.811-.128-1.375.79-2.88.79-2.88s-5.404-1.753-4.981-.621c.273.734-.487 2.028-1.054 2.815-.308.438-.56.739-.56.739l-.644 1.35z" fill="#EFB7B9"/>
    <circle fill="#000" opacity=".1" cx="106.5" cy="23.5" r="4.5"/>
    <circle fill="#EFB7B9" cx="106.5" cy="23.5" r="4.5"/>
    <path d="M101.449 46.868c.218 1 1.22 2.574 1.22 2.574L109.106 51l4.614-4.727v-.03c-.142-.441-1.9-6.032-.629-7.412s.84-5.471.84-5.471-2.3-2.608-2.761-3.236c-.462-.628-3.448-1.124-3.448-1.124.146.198.285.388.419.566.321.474.569.992.734 1.537.189.54.167 1.13-.063 1.653-.067.132-.119.27-.155.413-.503 2.17-2.794 1.868-3.708 1.653-.235-.058-.378-.107-.378-.107l-2.194.07-1.376.046s.625 10.686.478 11.537a1.222 1.222 0 0 0-.03.5z" fill="#FF6484"/>
    <path d="M102.03 36l3.97-.833h-.075a2.848 2.848 0 0 1-.375-.167l-2.182.113-1.368.074s.013.28.03.813zM106 50.615l1.676.385 2.634-.324L111 50z" fill="#925978"/>
    <path fill="#925978" d="M109 50.44l.708.46.292-.8z"/>
    <path d="M102.467 46.852c.922.1 1.773.148 1.773.148l4.76-.189v-5.3a7.134 7.134 0 0 0-1.917-1.349c-.828-.305-1.807-1.24-1.623-3.715 0-.14.023-.29.042-.442a6.41 6.41 0 0 0 .041-.83c.006-1.237-.472-2.42-1.318-3.267l-.071-.064-.776-3.844a.822.822 0 0 0-.154.02c-.271.433-.493.73-.493.73l-.573 1.337 1.077 5.052-1.235.044s.561 10.376.43 11.203a1.28 1.28 0 0 0 .037.466z" fill="#000" opacity=".1"/>
    <path d="M103.757 47l5.243-.188v-5.294a7.784 7.784 0 0 0-2.099-1.36c-.966-.324-2.115-1.35-1.742-4.158a4.508 4.508 0 0 0-1.406-4.094l-.08-.064L102.82 28a1.873 1.873 0 0 0-1.352.75c-.094.149-.2.29-.315.425a.845.845 0 0 1-1.054.305c-.551-.237-2.928-1.203-3.463-.257-.535.946-.635 6.625-.635 6.625a4.322 4.322 0 0 1 1.543 2.454c.365 1.604.975 1.66.975 1.66l.655 4.652s.598 1.01.154 1.568" fill="#444053"/>
    <path d="M102 28.203l.686 2.65L104 31l-.06-.066-.658-3.934c-.417.047-.797.328-1.04.768a3.897 3.897 0 0 1-.242.435z" fill="#444053"/>
    <path d="M89 24.208l.095.49 3.227.302s.265-.13.678-.308c-.353-.052-1.943-.283-2.784-.468-.308-.063-.516-.117-.523-.154-.007-.037.02-.042.07-.07l-.763.208z" fill="#000" opacity=".1"/>
    <path d="M84.035 28.999s4.35 3.168 7.046 3.68c0 0 3.785 1.078 5.283 2.321L98 28.99l-.972-.657s-1.19.706-2.216.472a24.61 24.61 0 0 0-2.154-.371c-.897-.317-1.82-.56-2.76-.727-.731-.056-.42-.968.295-1.453.098-.062.2-.117.307-.165a.963.963 0 0 0 1.233.266c.276-.17.518-.386.715-.637.303-.37.573-.762.807-1.175 0 0-2.267-.464-3.398-.807-.366-.109-.615-.202-.623-.262-.034-.25 2.023-1.038 2.023-1.038s-1.762-.807-2.477-.226c0 0 .458.335.088.662s-4.888 3.653-4.888 3.653-2.242 1.053.055 2.474z" fill="#444053"/>
    <path d="M88 26.568l2.26.26a2.47 2.47 0 0 1 .29-.13c.26.3.762.39 1.158.21.259-.134.487-.303.671-.501.229-.246.436-.505.621-.773 0 0-2.134-.368-3.194-.634L88 26.568z" fill="#000" opacity=".1"/>
    <path d="M88 26.195l2.411.385c.26.416.763.542 1.158.291.692-.442 1.431-1.988 1.431-1.988s-2.13-.508-3.194-.883L88 26.195z" fill="#444053"/>
    <path d="M134.777 63L131 66s1.708.926 3.3 2c1.393-.988 2.706-1.898 3.7-2.734-1.325-.473-3.223-2.266-3.223-2.266zM111.095 83c1.03-.13 2.042-.374 3.018-.73 0 0 .76-.167 1.887-.548-.032-.41-.057-.844-.06-1.356a28.106 28.106 0 0 0-.565-4.366l-4.174.766-.11 4.706a3.183 3.183 0 0 0 .004 1.528z" fill="#000" opacity=".1"/>
    <path d="M104.494 64.51c.845 1.266 3.14 6.63 3.14 6.63.517.953 1.101 1.867 1.748 2.734.914 1.172 1.548 3.796 2.243 5.896.695 2.1-.207 1.704-.105 2.81.101 1.105 4.023-.318 4.023-.318s8.03-1.795 10.48-6.766c2.45-4.971 12.248-9.489 14.223-12.29 1.975-2.801-.565-1.65-.463-3.16.101-1.51-1.037-2.79-1.037-2.79s-3.694-1.055-4.295-1.794c-.601-.738-3.552-2.582-3.552-2.582s-2.78-1.238-3.133-1.65c-.353-.413-3.657-1.75-4.66-2.005-1.005-.256-2-1.713-2-1.713s-.626.083-1.548-.825C118.635 45.78 114.77 45 114.77 45c-6.612 4.918-11.176 4.216-11.176 4.216l-.105.933c-3.507 4.64.166 13.098 1.004 14.36z" fill="#FF6484"/>
    <path d="M103 49.781s5.548 1.774 11-4.781c-6.447 4.567-10.897 3.915-10.897 3.915l-.103.866zM113 53.001s7.53 11.564 7.982 11.988c.45.425-7.587-12.132-7.982-11.988zM110 53s5.104 8.822 4.998 10c0 .026-4.94-8.452-4.998-10zM106.609 55s1.202 4.471-.609 7l.609-7zM105 55s-.127 4.146-1 5l1-5zM117 52l7 2.674-2.562.326zM104.373 20.806c.332.238.607.627 1 .681.285.01.566-.067.813-.221.66-.314 1.409-.557 2.092-.31.974.356 1.508 1.58 2.478 1.945a1.599 1.599 0 0 0 1.45-.176c.382-.259.657-.672.764-1.15.13-.842-.162-1.695-.764-2.237a4.373 4.373 0 0 0-2.057-1.024c-1.947-.473-3.97-.314-5.959-.15a.816.816 0 0 0-.466.133c-.301.247-.817 1.488-.71 1.907.16.56 1.306.133 1.36.602z" fill="#000" opacity=".1"/>
    <path d="M104.37 19.806c.332.238.607.627 1.004.681.284.009.565-.068.813-.221.66-.314 1.408-.557 2.088-.31.973.356 1.507 1.58 2.48 1.945a1.598 1.598 0 0 0 1.451-.176c.384-.257.658-.67.763-1.15.13-.842-.16-1.695-.763-2.237a4.368 4.368 0 0 0-2.061-1.024c-1.947-.473-3.97-.314-5.954-.15a.816.816 0 0 0-.466.133c-.301.247-.82 1.488-.71 1.907.145.551 1.302.133 1.355.602z" fill="#F86D70"/>
    <path d="M131 23.526l.661 2.474.86-.48 4.662-2.606s3.53-.118 3.804-2.746c.275-2.63-3.924-.026-4.147.176-.223.203-.733.55-.733.55l-4.342 2.238-.765.394z" fill="#EFB7B9"/>
    <path d="M132 23.413l.435 2.587.565-.501c-.126-1.157-.32-2.248-.497-2.499l-.503.413zM107 41.308l.97 5.692 5.757-1.22c-.138-.435-1.847-5.936-.611-7.294 1.235-1.358.815-5.383.815-5.383s-2.234-2.566-2.683-3.184c-.448-.618-3.351-1.106-3.351-1.106a2.353 2.353 0 0 1-.212-.813 3.121 3.121 0 0 0-.22.606c0 1.04.408 1.752 1.537 2.277l.31.134c.175.069.367.134.57.2l.094.028c1.855.548 2.255 1.654 2.255 1.654.651.852.953 1.92.844 2.985-.208 1.78-6.075 5.424-6.075 5.424z" fill="#000" opacity=".1"/>
    <path d="M108 42.057l.945 5.943 6.306-1.41s-.19-2.245-.63-3.157c-.441-.913-.354-4.462-.354-4.462 2.683-3.09 1.274-5.607 1.274-5.607s7.882-1.362 8.017-1.617c.135-.255 2.778-1.774 2.778-1.774s2.858-.781 3.243-1.219c.144-.164.3-.316.468-.454.05-.04.1-.075.155-.106l.21 1.948h.08c.46-.052.9-.237 1.27-.534.65-.535-.171-6.368-.794-6.584a.707.707 0 0 0-.365 0c-.498.164-.96.43-1.362.785l-.107.094-.04.034s-3.571 1.498-4.282 2.186c-.71.687-6.263 1.566-6.263 1.566s-2.488.628-2.81.246c-.321-.382-4.12-1.002-4.437-.424-.317.577-1.19.492-1.19.492-.628-.768-1.06-.471-1.326-.03a3.13 3.13 0 0 0-.334.85c0 1.184.485 1.956 1.798 2.516.195.085.397.162.647.238 1.806.573 2.195 1.728 2.195 1.728.634.89.927 2.006.822 3.12-.203 1.812-5.914 5.632-5.914 5.632z" fill="#444053"/>
    <path d="M130.627 23.01a.66.66 0 0 1 .224 0c.7.204 1.61 5.957.88 6.484-.36.26-.781.434-1.227.506h-.106l-.233-1.919c-.06.03-.117.066-.171.105v-.08a4.828 4.828 0 0 0-.994-4.26l1.627-.836z" fill="#000" opacity=".1"/>
    <path d="M131.027 28.093l.229 1.907a2.841 2.841 0 0 0 1.485-.532c.708-.523-.186-6.23-.864-6.443-.543-.162-1.497.49-1.877.769a4.812 4.812 0 0 1 1.027 4.3zM110 31l1-.812L108.368 28a2.497 2.497 0 0 0-.368.756c0 1.058.53 1.745 2 2.244z" fill="#444053"/>
    <path d="M104.321 19.522c.332.234.607.617 1 .67.285.01.566-.066.813-.218.66-.308 1.409-.546 2.092-.304.973.35 1.527 1.554 2.477 1.912a1.622 1.622 0 0 0 1.45-.173c.383-.254.657-.66.764-1.13a2.01 2.01 0 0 0 .042-.502c.055.27.055.551 0 .822-.149.681-.648 1.21-1.283 1.357a1.618 1.618 0 0 1-.927-.053c-.974-.358-1.508-1.563-2.477-1.912-.684-.243-1.432 0-2.092.304a1.463 1.463 0 0 1-.813.218c-.382-.053-.672-.436-1.004-.67-.053-.46-1.206-.041-1.351-.592a.668.668 0 0 1 0-.251c.217.436 1.248.09 1.31.522zM106.878 33s-.455 1.499.122 2c0 0-.63-1.979-1-1.937" fill="#000" opacity=".1"/>
    <path d="M139.6 18s-2.964 3.409-.824 3.954c2.14.546.823-3.954.823-3.954z" fill="#EFB7B9"/>
    <path fill="#FFF" d="M126 21l.634 17L145 21z"/>
    <path fill="#000" opacity=".03" d="M126 21l.634 17L145 21z"/>
    <ellipse fill="#674B7C" cx="347.5" cy="283.5" rx="13.5" ry="2.5"/>
    <ellipse fill="#3F3D56" cx="347.5" cy="282" rx="1.5" ry="2"/>
    <ellipse fill="#3F3D56" cx="347.5" cy="280" rx="1.5" ry="2"/>
    <ellipse fill="#3F3D56" cx="347.5" cy="277" rx="1.5" ry="2"/>
    <ellipse fill="#3F3D56" cx="347.5" cy="275" rx="1.5" ry="2"/>
    <ellipse fill="#3F3D56" cx="347.5" cy="272" rx="1.5" ry="2"/>
    <ellipse fill="#3F3D56" cx="347.5" cy="270" rx="1.5" ry="2"/>
    <ellipse fill="#3F3D56" cx="347.5" cy="267" rx="1.5" ry="2"/>
    <path d="M353.287 248.644c.225-.286.432-.585.62-.897l-4.38-.706 4.74.034a7.67 7.67 0 0 0 .152-6.201l-6.359 3.231 5.867-4.224c-1.504-2.523-4.317-4.016-7.297-3.871-2.98.144-5.628 1.903-6.87 4.56a7.698 7.698 0 0 0 .966 8.074c-.354.443-.66.92-.912 1.425l5.694 2.907-6.071-1.998a7.725 7.725 0 0 0 1.272 7.356c-2.576 3.21-2.2 7.819.86 10.589 3.062 2.77 7.783 2.77 10.844 0 3.062-2.77 3.437-7.38.862-10.59a7.712 7.712 0 0 0 0-9.68l.012-.009z" fill="#674B7C"/>
    <path d="M339.013 254.112a7.277 7.277 0 0 0 1.697 4.67c-2.578 3.096-2.202 7.543.862 10.214 3.065 2.672 7.79 2.672 10.856 0 3.064-2.671 3.44-7.118.862-10.213 1.082-1.286-14.277-5.52-14.277-4.671z" fill="#000" opacity=".1"/>
  </g>
</svg>
